<svg width="23" height="22" viewBox="0 0 23 22" fill="none" xmlns="http://www.w3.org/2000/svg">
<path d="M21.004 10.2323C20.4796 9.52277 19.7481 8.69177 18.9455 7.89527C18.143 7.09877 17.3057 6.37277 16.5908 5.85227C15.3727 4.96577 14.7817 4.86377 14.4432 4.86377H6.75285C5.71152 4.86377 4.86365 5.70527 4.86365 6.73877V19.9888C4.86365 21.0223 5.71152 21.8638 6.75285 21.8638H20.1108C21.1521 21.8638 22 21.0223 22 19.9888V12.3638C22 12.0278 21.8972 11.4413 21.004 10.2323ZM17.8755 8.95727C18.601 9.67727 19.1692 10.3253 19.5894 10.8638H15.953V7.25627C16.4956 7.67327 17.15 8.23727 17.874 8.95727H17.8755ZM20.4886 19.9888C20.4886 20.1928 20.3164 20.3638 20.1108 20.3638H6.75285C6.65301 20.3626 6.55758 20.3227 6.48698 20.2526C6.41637 20.1826 6.37619 20.0879 6.37501 19.9888V6.73877C6.37501 6.53627 6.54731 6.36377 6.75285 6.36377H14.4432V11.6138C14.4432 11.8127 14.5228 12.0034 14.6645 12.1441C14.8062 12.2848 14.9985 12.3638 15.1989 12.3638H20.4886V19.9888Z" fill="#CCCCCC" stroke="white" stroke-width="0.2"/>
<path d="M13.7058 1.99027C12.4897 1.10218 11.8997 1 11.5618 1H2.88603C1.84645 1 1 1.84301 1 2.87835V18.1592C1 19.0668 1.64879 19.8257 2.50882 20V2.87835C2.50882 2.67549 2.68234 2.50268 2.88603 2.50268H14.3636C14.1484 2.3261 13.9286 2.15524 13.7043 1.99027H13.7058Z" fill="#CCCCCC" stroke="white" stroke-width="0.2"/>
</svg>
