<svg width="10" height="11" viewBox="0 0 10 11" fill="none" xmlns="http://www.w3.org/2000/svg">
<path d="M0.203947 6.06668H4.07895V10.1834C4.07895 10.3025 4.17072 10.4 4.28289 10.4H5.50658C5.61875 10.4 5.71053 10.3025 5.71053 10.1834V6.06668H9.58553C9.6977 6.06668 9.78947 5.96918 9.78947 5.85001V4.55001C9.78947 4.43084 9.6977 4.33334 9.58553 4.33334H5.71053V0.216667C5.71053 0.0975002 5.61875 0 5.50658 0H4.28289C4.17072 0 4.07895 0.0975002 4.07895 0.216667V4.33334H0.203947C0.0917763 4.33334 0 4.43084 0 4.55001V5.85001C0 5.96918 0.0917763 6.06668 0.203947 6.06668Z" fill="white"/>
</svg>
